<svg data-v-fde0c5aa="" xmlns="http://www.w3.org/2000/svg" viewBox="0 0 300 300" class="iconAboveSlogan"><!----><defs data-v-fde0c5aa=""><!----></defs><rect data-v-fde0c5aa="" fill="transparent" x="0" y="0" width="300px" height="300px" class="logo-background-square"></rect><defs data-v-fde0c5aa=""><!----></defs><g data-v-fde0c5aa="" id="0bb3b52a-77c8-48d0-8030-7263f72556c5" fill="#000000" transform="matrix(2.0077220077220077,0,0,2.0077220077220077,18.31351344649856,149.41760781123622)"><path d="M5.22 5.95L5.22 13.61L7.06 13.61C7.25 13.61 7.41 13.73 7.41 13.89L7.41 15.53C7.41 15.68 7.25 15.81 7.06 15.81L1.12 15.81C0.97 15.81 0.84 15.68 0.84 15.53L0.84 13.89C0.84 13.73 0.97 13.61 1.12 13.61L3.02 13.61L3.02 5.95L1.12 5.95C0.97 5.95 0.84 5.84 0.84 5.68L0.84 4.05C0.84 3.89 0.97 3.77 1.12 3.77L7.06 3.77C7.25 3.77 7.41 3.89 7.41 4.05L7.41 5.68C7.41 5.84 7.25 5.95 7.06 5.95ZM17.29 15.89L11.27 9.32L11.27 15.53C11.27 15.68 11.16 15.81 11.00 15.81L9.37 15.81C9.21 15.81 9.09 15.68 9.09 15.53L9.09 3.70L15.11 10.26L15.11 4.06C15.11 3.91 15.23 3.78 15.37 3.78L17.02 3.78C17.16 3.78 17.29 3.91 17.29 4.06ZM27.17 5.67C27.17 5.82 27.05 5.95 26.91 5.95L22.40 5.95L24.68 8.69L25.47 8.69C25.66 8.69 25.80 8.81 25.80 8.96L25.80 10.60C25.80 10.75 25.66 10.88 25.47 10.88L21.15 10.88L21.15 15.51C21.15 15.67 21.04 15.81 20.89 15.81L19.25 15.81C19.10 15.81 18.97 15.67 18.97 15.51L18.97 8.69L21.83 8.69L18.97 5.25L18.97 4.06C18.97 3.89 19.10 3.77 19.25 3.77L26.91 3.77C27.05 3.77 27.17 3.89 27.17 4.06ZM32.96 5.95L32.96 13.61L34.79 13.61C34.99 13.61 35.14 13.73 35.14 13.89L35.14 15.53C35.14 15.68 34.99 15.81 34.79 15.81L28.85 15.81C28.70 15.81 28.57 15.68 28.57 15.53L28.57 13.89C28.57 13.73 28.70 13.61 28.85 13.61L30.76 13.61L30.76 5.95L28.85 5.95C28.70 5.95 28.57 5.84 28.57 5.68L28.57 4.05C28.57 3.89 28.70 3.77 28.85 3.77L34.79 3.77C34.99 3.77 35.14 3.89 35.14 4.05L35.14 5.68C35.14 5.84 34.99 5.95 34.79 5.95ZM45.02 15.89L39.00 9.32L39.00 15.53C39.00 15.68 38.89 15.81 38.74 15.81L37.10 15.81C36.95 15.81 36.82 15.68 36.82 15.53L36.82 3.70L42.84 10.26L42.84 4.06C42.84 3.91 42.97 3.78 43.11 3.78L44.76 3.78C44.90 3.78 45.02 3.91 45.02 4.06ZM50.25 5.95L50.25 13.61L52.08 13.61C52.28 13.61 52.43 13.73 52.43 13.89L52.43 15.53C52.43 15.68 52.28 15.81 52.08 15.81L46.14 15.81C45.99 15.81 45.86 15.68 45.86 15.53L45.86 13.89C45.86 13.73 45.99 13.61 46.14 13.61L48.05 13.61L48.05 5.95L46.14 5.95C45.99 5.95 45.86 5.84 45.86 5.68L45.86 4.05C45.86 3.89 45.99 3.77 46.14 3.77L52.08 3.77C52.28 3.77 52.43 3.89 52.43 4.05L52.43 5.68C52.43 5.84 52.28 5.95 52.08 5.95ZM61.96 5.68C61.96 5.84 61.81 5.96 61.63 5.96L58.95 5.96L58.95 15.47C58.95 15.65 58.83 15.81 58.69 15.81L57.04 15.81C56.90 15.81 56.77 15.65 56.77 15.47L56.77 5.96L54.04 5.96C53.89 5.96 53.76 5.84 53.76 5.68L53.76 4.05C53.76 3.89 53.89 3.78 54.04 3.78L61.63 3.78C61.81 3.78 61.96 3.89 61.96 4.05ZM71.36 15.54C71.36 15.69 71.23 15.82 71.09 15.82L63.43 15.82C63.28 15.82 63.15 15.69 63.15 15.54L63.15 4.06C63.15 3.91 63.28 3.78 63.43 3.78L70.81 3.78C70.97 3.78 71.09 3.91 71.09 4.06L71.09 5.70C71.09 5.85 70.97 5.96 70.81 5.96L65.34 5.96L65.34 8.71L70.53 8.71C70.69 8.71 70.81 8.82 70.81 8.97L70.81 10.61C70.81 10.77 70.69 10.89 70.53 10.89L65.34 10.89L65.34 13.62L71.09 13.62C71.23 13.62 71.36 13.75 71.36 13.90ZM73.04 3.79L77.62 8.37L82.19 3.79L82.19 15.54C82.19 15.69 82.08 15.82 81.93 15.82L80.32 15.82C80.16 15.82 80.04 15.69 80.04 15.54L80.04 8.99L77.62 11.41L75.19 8.99L75.19 15.54C75.19 15.69 75.08 15.82 74.93 15.82L73.30 15.82C73.16 15.82 73.04 15.69 73.04 15.54ZM91.45 11.16C91.45 11.00 91.32 10.89 91.17 10.89L90.24 10.89L88.54 4.05L88.52 3.98C88.48 3.88 88.38 3.81 88.27 3.81L86.44 3.81C86.32 3.81 86.23 3.88 86.18 3.98L86.17 4.06L83.33 15.41C83.33 15.43 83.33 15.44 83.31 15.44L83.31 15.50C83.31 15.67 83.44 15.79 83.58 15.79L85.27 15.79C85.39 15.79 85.50 15.71 85.53 15.60C85.53 15.58 85.54 15.57 85.54 15.57L86.16 13.06L88.55 13.06L89.17 15.55L89.18 15.60C89.22 15.71 89.32 15.79 89.43 15.79L91.13 15.79C91.28 15.79 91.39 15.67 91.39 15.50L91.39 15.47L91.38 15.40L90.79 13.06L91.17 13.06C91.32 13.06 91.45 12.95 91.45 12.80ZM86.70 10.89L87.36 8.30L88.00 10.89ZM101.40 15.37L99.18 11.42L98.87 10.89L98.80 10.77C100.83 10.32 101.88 8.82 101.88 7.35C101.88 6.38 101.43 5.46 100.66 4.82C99.88 4.14 98.77 3.79 97.50 3.79L93.41 3.79C93.25 3.79 93.13 3.92 93.13 4.06L93.13 5.17L93.27 5.42L93.27 5.43L95.13 8.71L93.13 8.71L93.13 15.54C93.13 15.69 93.25 15.82 93.41 15.82L95.05 15.82C95.19 15.82 95.31 15.69 95.31 15.54L95.31 10.89L96.36 10.89L96.66 11.42L99.05 15.65L99.08 15.69C99.12 15.76 99.20 15.82 99.30 15.82L101.18 15.82C101.33 15.82 101.44 15.69 101.44 15.53C101.44 15.48 101.44 15.44 101.42 15.40ZM97.34 8.19L96.10 5.98L97.50 5.98C99.01 5.98 99.68 6.69 99.68 7.35C99.68 7.91 99.18 8.53 98.04 8.68C97.92 8.69 97.78 8.71 97.64 8.71ZM111.62 15.53C111.62 15.68 111.51 15.81 111.36 15.81L109.35 15.81C109.27 15.81 109.20 15.78 109.14 15.71L109.13 15.68L105.74 10.92L105.74 15.53C105.74 15.68 105.63 15.81 105.48 15.81L103.84 15.81C103.68 15.81 103.56 15.68 103.56 15.53L103.56 8.69L104.85 8.69L103.59 4.20L103.56 4.09L103.56 4.06C103.56 3.91 103.68 3.78 103.84 3.78L105.55 3.78C105.66 3.78 105.77 3.86 105.80 3.98L106.90 7.92L109.12 3.93C109.17 3.84 109.26 3.78 109.37 3.78L111.23 3.78C111.38 3.78 111.51 3.91 111.51 4.06C111.51 4.10 111.50 4.14 111.48 4.19L111.45 4.23L108.04 10.37L111.55 15.33L111.59 15.37C111.61 15.41 111.62 15.47 111.62 15.53ZM121.37 15.54C121.37 15.69 121.24 15.82 121.10 15.82L113.44 15.82C113.29 15.82 113.16 15.69 113.16 15.54L113.16 4.06C113.16 3.91 113.29 3.78 113.44 3.78L120.82 3.78C120.97 3.78 121.10 3.91 121.10 4.06L121.10 5.70C121.10 5.85 120.97 5.96 120.82 5.96L115.35 5.96L115.35 8.71L120.54 8.71C120.69 8.71 120.82 8.82 120.82 8.97L120.82 10.61C120.82 10.77 120.69 10.89 120.54 10.89L115.35 10.89L115.35 13.62L121.10 13.62C121.24 13.62 121.37 13.75 121.37 13.90ZM130.34 5.68C130.34 5.84 130.19 5.96 130.00 5.96L127.33 5.96L127.33 15.47C127.33 15.65 127.20 15.81 127.06 15.81L125.41 15.81C125.27 15.81 125.15 15.65 125.15 15.47L125.15 5.96L122.42 5.96C122.26 5.96 122.14 5.84 122.14 5.68L122.14 4.05C122.14 3.89 122.26 3.78 122.42 3.78L130.00 3.78C130.19 3.78 130.34 3.89 130.34 4.05Z"></path></g><defs data-v-fde0c5aa=""><linearGradient data-v-fde0c5aa="" gradientTransform="rotate(25)" id="7cda5a92-11a3-4388-aff5-9a42fbda5cfa" x1="0%" y1="0%" x2="100%" y2="0%"><stop data-v-fde0c5aa="" offset="0%" stop-color="#41E296" stop-opacity="1"></stop><stop data-v-fde0c5aa="" offset="100%" stop-color="#00C4EE" stop-opacity="1"></stop></linearGradient></defs><g data-v-fde0c5aa="" id="ce48e038-830b-4cc8-8977-69f010b23974" stroke="none" fill="url(#7cda5a92-11a3-4388-aff5-9a42fbda5cfa)" transform="matrix(1.364417727391358,0,0,1.364417727391358,115.88955681521605,87.95339914481374)"><path d="M37.7 12.7c-2.1 0-4.1.5-5.9 1.5-1 .6-1.9 1.3-2.7 2.1L25 20.4l-4.1-4.1c-.8-.8-1.7-1.5-2.7-2.1-1.8-1-3.9-1.5-5.9-1.5C5.5 12.7 0 18.2 0 25c0 6.8 5.5 12.3 12.3 12.3 2.1 0 4.1-.5 5.9-1.5 1-.6 1.9-1.2 2.7-2.1l4.1-4.1 4.1 4.1c.8.8 1.7 1.5 2.7 2.1 1.8 1 3.9 1.5 5.9 1.5C44.5 37.3 50 31.8 50 25c0-6.8-5.5-12.3-12.3-12.3zM16.3 29.1c-.4.4-.8.7-1.3 1-.9.5-1.8.7-2.8.7-3.2 0-5.7-2.6-5.7-5.7s2.6-5.7 5.7-5.7c1 0 1.9.2 2.8.7.5.3.9.6 1.3 1l4.1 4.1-4.1 3.9zm21.4 1.6c-1 0-1.9-.2-2.8-.7-.5-.3-.9-.6-1.3-1l-4-4 4.1-4.1c.4-.4.8-.7 1.3-1 .9-.5 1.8-.7 2.8-.7 3.2 0 5.7 2.6 5.7 5.7 0 3.3-2.6 5.8-5.8 5.8z"></path></g><defs data-v-fde0c5aa=""><!----></defs><g data-v-fde0c5aa="" id="e7d676c5-fb51-4f65-a26d-1bd3dc47774c" fill="#000000" transform="matrix(0.35808068269889776,0,0,0.35808068269889776,52.4534495129566,190.56834228239535)"><path d="M6.71 3.70L9.21 11.48L10.40 11.48L13.29 2.21L12.18 2.21L9.80 10.00L7.31 2.21L6.10 2.21L3.61 10.00L1.23 2.21L0.13 2.21L3.01 11.48L4.20 11.48ZM28.36 3.22L28.36 2.21L21.55 2.21L21.55 11.48L28.36 11.48L28.36 10.47L22.60 10.47L22.60 7.35L27.75 7.35L27.75 6.33L22.60 6.33L22.60 3.22ZM50.95 2.21L47.04 2.21L47.04 11.48L50.95 11.48C53.16 11.48 55.20 9.74 55.20 6.85C55.20 3.95 53.16 2.21 50.95 2.21ZM50.90 10.49L48.09 10.49L48.09 3.21L50.90 3.21C52.88 3.21 54.15 4.86 54.15 6.85C54.15 8.83 52.88 10.49 50.90 10.49ZM68.01 2.10C65.20 2.10 63.31 4.21 63.31 6.85C63.31 9.48 65.20 11.59 68.01 11.59C70.83 11.59 72.72 9.48 72.72 6.85C72.72 4.21 70.83 2.10 68.01 2.10ZM68.01 10.57C65.76 10.57 64.36 8.93 64.36 6.85C64.36 4.76 65.76 3.12 68.01 3.12C70.27 3.12 71.67 4.76 71.67 6.85C71.67 8.93 70.27 10.57 68.01 10.57ZM88.34 2.21L88.34 10.01L82.61 2.21L81.40 2.21L81.40 11.48L82.45 11.48L82.45 3.65L88.17 11.48L89.39 11.48L89.39 2.21ZM99.43 2.21L98.18 2.21L98.45 5.28L99.16 5.28ZM114.80 2.21L107.28 2.21L107.28 3.22L110.52 3.22L110.52 11.48L111.57 11.48L111.57 3.22L114.80 3.22ZM139.55 2.21L139.55 6.33L134.16 6.33L134.16 2.21L133.11 2.21L133.11 11.48L134.16 11.48L134.16 7.35L139.55 7.35L139.55 11.48L140.60 11.48L140.60 2.21ZM154.03 2.21L152.71 2.21L148.78 11.48L149.94 11.48L151.07 8.79L155.67 8.79L156.80 11.48L157.96 11.48ZM151.48 7.83L153.37 3.30L155.26 7.83ZM172.00 2.21L168.80 10.29L165.59 2.21L164.44 2.21L168.20 11.48L169.40 11.48L173.15 2.21ZM188.15 3.22L188.15 2.21L181.33 2.21L181.33 11.48L188.15 11.48L188.15 10.47L182.38 10.47L182.38 7.35L187.53 7.35L187.53 6.33L182.38 6.33L182.38 3.22ZM210.98 2.21L209.66 2.21L205.73 11.48L206.89 11.48L208.03 8.79L212.62 8.79L213.75 11.48L214.91 11.48ZM208.43 7.83L210.32 3.30L212.21 7.83ZM230.03 2.21L230.03 10.01L224.31 2.21L223.09 2.21L223.09 11.48L224.14 11.48L224.14 3.65L229.87 11.48L231.08 11.48L231.08 2.21ZM244.15 7.81L248.02 2.21L246.75 2.21L243.61 6.72L240.48 2.21L239.20 2.21L243.10 7.81L243.10 11.48L244.15 11.48ZM266.14 2.21L266.14 11.48L272.24 11.48L272.24 10.47L267.19 10.47L267.19 2.21ZM281.65 2.21L280.60 2.21L280.60 11.48L281.65 11.48ZM298.72 2.21L295.46 6.61L292.14 2.21L290.92 2.21L290.92 11.48L291.97 11.48L291.97 3.81L295.46 8.22L298.89 3.81L298.89 11.48L299.94 11.48L299.94 2.21ZM310.25 2.21L309.20 2.21L309.20 11.48L310.25 11.48ZM326.10 2.21L318.58 2.21L318.58 3.22L321.82 3.22L321.82 11.48L322.87 11.48L322.87 3.22L326.10 3.22ZM333.23 10.05L333.23 11.48L334.59 11.48L334.59 10.05ZM359.02 3.70L361.52 11.48L362.71 11.48L365.60 2.21L364.49 2.21L362.11 10.00L359.62 2.21L358.41 2.21L355.92 10.00L353.54 2.21L352.44 2.21L355.32 11.48L356.51 11.48ZM380.67 3.22L380.67 2.21L373.86 2.21L373.86 11.48L380.67 11.48L380.67 10.47L374.91 10.47L374.91 7.35L380.06 7.35L380.06 6.33L374.91 6.33L374.91 3.22ZM403.51 2.21L402.19 2.21L398.26 11.48L399.42 11.48L400.55 8.79L405.15 8.79L406.28 11.48L407.44 11.48ZM400.96 7.83L402.85 3.30L404.74 7.83ZM416.67 7.92L419.89 7.92L422.13 11.48L423.37 11.48L420.94 7.74C421.97 7.50 423.18 6.90 423.18 5.11C423.18 3.35 421.96 2.21 420.06 2.21L415.62 2.21L415.62 11.48L416.67 11.48ZM416.67 3.21L419.93 3.21C421.25 3.21 422.13 3.93 422.13 5.11C422.13 6.55 420.87 6.93 419.87 6.93L416.67 6.93ZM438.80 3.22L438.80 2.21L431.98 2.21L431.98 11.48L438.80 11.48L438.80 10.47L433.03 10.47L433.03 7.35L438.19 7.35L438.19 6.33L433.03 6.33L433.03 3.22ZM458.53 2.21L457.48 2.21L457.48 11.48L458.53 11.48ZM474.74 2.21L474.74 10.01L469.01 2.21L467.80 2.21L467.80 11.48L468.85 11.48L468.85 3.65L474.57 11.48L475.79 11.48L475.79 2.21ZM491.75 3.22L491.75 2.21L485.06 2.21L485.06 11.48L486.11 11.48L486.11 7.46L491.13 7.46L491.13 6.44L486.11 6.44L486.11 3.22ZM501.27 2.21L500.22 2.21L500.22 11.48L501.27 11.48ZM517.48 2.21L517.48 10.01L511.76 2.21L510.54 2.21L510.54 11.48L511.59 11.48L511.59 3.65L517.31 11.48L518.53 11.48L518.53 2.21ZM528.85 2.21L527.80 2.21L527.80 11.48L528.85 11.48ZM544.70 2.21L537.18 2.21L537.18 3.22L540.41 3.22L540.41 11.48L541.46 11.48L541.46 3.22L544.70 3.22Z"></path></g></svg>